<svg xmlns="http://www.w3.org/2000/svg" version="1.1" xmlns:xlink="http://www.w3.org/1999/xlink" xmlns:svgjs="http://svgjs.dev/svgjs" width="1000" height="1000" viewBox="0 0 1000 1000"><rect width="1000" height="1000" fill="#000000"></rect><g transform="matrix(0.7,0,0,0.7,150.28142292490116,158.6765991902834)"><svg viewBox="0 0 253 247" data-background-color="#000000" preserveAspectRatio="xMidYMid meet" height="976" width="1000" xmlns="http://www.w3.org/2000/svg" xmlns:xlink="http://www.w3.org/1999/xlink"><defs></defs><g id="tight-bounds" transform="matrix(1,0,0,1,-0.1017142857142801,-0.09999999999999432)"><svg viewBox="0 0 253.20342857142856 247.2" height="247.2" width="253.20342857142856"><g><svg viewBox="0 0 253.20342857142856 247.2" height="247.2" width="253.20342857142856"><g><svg viewBox="0 0 253.20342857142856 247.2" height="247.2" width="253.20342857142856"><g><svg viewBox="0 0 253.20342857142856 247.2" height="247.2" width="253.20342857142856"><g><svg viewBox="0 0 253.20342857142856 247.2" height="247.2" width="253.20342857142856"><g transform="matrix(1,0,0,1,0,0)"><svg width="253.20342857142856" viewBox="3.0999999046325684 -35 35.85000228881836 35" height="247.2" data-palette-color="#ffffff"><path d="M11.95 0L4.45 0Q3.9 0 3.5-0.38 3.1-0.75 3.1-1.3L3.1-1.3 3.1-33.7Q3.1-34.25 3.5-34.63 3.9-35 4.45-35L4.45-35 11.1-35Q12-35 12.45-34.5 12.9-34 13.05-33.8L13.05-33.8 21.05-19.9 29.05-33.8Q29.2-34 29.65-34.5 30.1-35 31-35L31-35 37.65-35Q38.2-35 38.58-34.63 38.95-34.25 38.95-33.7L38.95-33.7 38.95-1.3Q38.95-0.75 38.58-0.38 38.2 0 37.65 0L37.65 0 30.15 0Q29.6 0 29.23-0.38 28.85-0.75 28.85-1.3L28.85-1.3 28.85-17.5 24.35-9.6Q24.1-9.2 23.7-8.8 23.3-8.4 22.55-8.4L22.55-8.4 19.5-8.4Q18.8-8.4 18.4-8.8 18-9.2 17.75-9.6L17.75-9.6 13.25-17.5 13.25-1.3Q13.25-0.75 12.88-0.38 12.5 0 11.95 0L11.95 0Z" opacity="1" transform="matrix(1,0,0,1,0,0)" fill="#ffffff" class="undefined-text-0" data-fill-palette-color="primary" id="text-0"></path></svg></g></svg></g></svg></g></svg></g><g></g></svg></g></svg><rect width="253.20342857142856" height="247.2" fill="none" stroke="none" visibility="hidden"></rect></g></svg></g></svg>