<svg xmlns="http://www.w3.org/2000/svg" xmlns:xlink="http://www.w3.org/1999/xlink" width="1023" zoomAndPan="magnify" viewBox="0 0 767.25 269.999989" height="360" preserveAspectRatio="xMidYMid meet" version="1.0"><defs><g/></defs><g fill="#551a85" fill-opacity="1"><g transform="translate(92.003568, 182.578478)"><g><path d="M 9.390625 0 C 8.046875 0 7.375 -0.671875 7.375 -2.015625 L 7.375 -81.1875 C 7.375 -82.539062 8.046875 -83.21875 9.390625 -83.21875 L 22.109375 -83.21875 C 23.140625 -83.21875 23.929688 -82.78125 24.484375 -81.90625 L 41.71875 -54.09375 C 41.882812 -53.851562 42.066406 -53.734375 42.265625 -53.734375 C 42.460938 -53.734375 42.597656 -53.851562 42.671875 -54.09375 L 60.15625 -81.90625 C 60.707031 -82.78125 61.5 -83.21875 62.53125 -83.21875 L 75.25 -83.21875 C 76.59375 -83.21875 77.265625 -82.539062 77.265625 -81.1875 L 77.265625 -2.015625 C 77.265625 -0.671875 76.59375 0 75.25 0 L 62.53125 0 C 61.175781 0 60.5 -0.671875 60.5 -2.015625 L 60.5 -53.5 C 60.5 -53.8125 60.398438 -54.003906 60.203125 -54.078125 C 60.003906 -54.160156 59.828125 -54.046875 59.671875 -53.734375 L 47.671875 -34.109375 C 47.117188 -33.242188 46.328125 -32.8125 45.296875 -32.8125 L 39.234375 -32.8125 C 38.203125 -32.8125 37.40625 -33.242188 36.84375 -34.109375 L 24.96875 -53.734375 C 24.800781 -54.046875 24.617188 -54.160156 24.421875 -54.078125 C 24.222656 -54.003906 24.125 -53.8125 24.125 -53.5 L 24.125 -2.015625 C 24.125 -0.671875 23.453125 0 22.109375 0 Z M 9.390625 0 "/></g></g></g><g fill="#551a85" fill-opacity="1"><g transform="translate(185.20298, 182.578478)"><g><path d="M 36.84375 1.3125 C 30.664062 1.3125 25.21875 0.046875 20.5 -2.484375 C 15.789062 -5.023438 12.128906 -8.570312 9.515625 -13.125 C 6.898438 -17.6875 5.59375 -22.941406 5.59375 -28.890625 L 5.59375 -54.328125 C 5.59375 -60.191406 6.898438 -65.378906 9.515625 -69.890625 C 12.128906 -74.410156 15.789062 -77.914062 20.5 -80.40625 C 25.21875 -82.90625 30.664062 -84.15625 36.84375 -84.15625 C 43.113281 -84.15625 48.601562 -82.90625 53.3125 -80.40625 C 58.03125 -77.914062 61.695312 -74.410156 64.3125 -69.890625 C 66.925781 -65.378906 68.234375 -60.191406 68.234375 -54.328125 L 68.234375 -28.890625 C 68.234375 -22.941406 66.925781 -17.671875 64.3125 -13.078125 C 61.695312 -8.484375 58.03125 -4.9375 53.3125 -2.4375 C 48.601562 0.0625 43.113281 1.3125 36.84375 1.3125 Z M 36.84375 -13.078125 C 41.207031 -13.078125 44.734375 -14.460938 47.421875 -17.234375 C 50.117188 -20.003906 51.46875 -23.691406 51.46875 -28.296875 L 51.46875 -54.4375 C 51.46875 -59.039062 50.140625 -62.75 47.484375 -65.5625 C 44.835938 -68.375 41.289062 -69.78125 36.84375 -69.78125 C 32.488281 -69.78125 28.984375 -68.375 26.328125 -65.5625 C 23.671875 -62.75 22.34375 -59.039062 22.34375 -54.4375 L 22.34375 -28.296875 C 22.34375 -23.691406 23.671875 -20.003906 26.328125 -17.234375 C 28.984375 -14.460938 32.488281 -13.078125 36.84375 -13.078125 Z M 36.84375 -13.078125 "/></g></g></g><g fill="#551a85" fill-opacity="1"><g transform="translate(267.70355, 182.578478)"><g><path d="M 9.390625 0 C 8.046875 0 7.375 -0.671875 7.375 -2.015625 L 7.375 -81.1875 C 7.375 -82.539062 8.046875 -83.21875 9.390625 -83.21875 L 22.109375 -83.21875 C 23.140625 -83.21875 23.929688 -82.78125 24.484375 -81.90625 L 41.71875 -54.09375 C 41.882812 -53.851562 42.066406 -53.734375 42.265625 -53.734375 C 42.460938 -53.734375 42.597656 -53.851562 42.671875 -54.09375 L 60.15625 -81.90625 C 60.707031 -82.78125 61.5 -83.21875 62.53125 -83.21875 L 75.25 -83.21875 C 76.59375 -83.21875 77.265625 -82.539062 77.265625 -81.1875 L 77.265625 -2.015625 C 77.265625 -0.671875 76.59375 0 75.25 0 L 62.53125 0 C 61.175781 0 60.5 -0.671875 60.5 -2.015625 L 60.5 -53.5 C 60.5 -53.8125 60.398438 -54.003906 60.203125 -54.078125 C 60.003906 -54.160156 59.828125 -54.046875 59.671875 -53.734375 L 47.671875 -34.109375 C 47.117188 -33.242188 46.328125 -32.8125 45.296875 -32.8125 L 39.234375 -32.8125 C 38.203125 -32.8125 37.40625 -33.242188 36.84375 -34.109375 L 24.96875 -53.734375 C 24.800781 -54.046875 24.617188 -54.160156 24.421875 -54.078125 C 24.222656 -54.003906 24.125 -53.8125 24.125 -53.5 L 24.125 -2.015625 C 24.125 -0.671875 23.453125 0 22.109375 0 Z M 9.390625 0 "/></g></g></g><g fill="#551a85" fill-opacity="1"><g transform="translate(360.90295, 182.578478)"><g><path d="M 65.03125 -70.84375 C 65.03125 -69.5 64.351562 -68.828125 63 -68.828125 L 24.71875 -68.828125 C 24.25 -68.828125 24.015625 -68.585938 24.015625 -68.109375 L 24.015625 -49.921875 C 24.015625 -49.453125 24.25 -49.21875 24.71875 -49.21875 L 49.578125 -49.21875 C 50.921875 -49.21875 51.59375 -48.539062 51.59375 -47.1875 L 51.59375 -36.84375 C 51.59375 -35.5 50.921875 -34.828125 49.578125 -34.828125 L 24.71875 -34.828125 C 24.25 -34.828125 24.015625 -34.585938 24.015625 -34.109375 L 24.015625 -15.09375 C 24.015625 -14.625 24.25 -14.390625 24.71875 -14.390625 L 63 -14.390625 C 64.351562 -14.390625 65.03125 -13.710938 65.03125 -12.359375 L 65.03125 -2.015625 C 65.03125 -0.671875 64.351562 0 63 0 L 9.265625 0 C 7.921875 0 7.25 -0.671875 7.25 -2.015625 L 7.25 -81.1875 C 7.25 -82.539062 7.921875 -83.21875 9.265625 -83.21875 L 63 -83.21875 C 64.351562 -83.21875 65.03125 -82.539062 65.03125 -81.1875 Z M 65.03125 -70.84375 "/></g></g></g><g fill="#551a85" fill-opacity="1"><g transform="translate(439.005106, 182.578478)"><g><path d="M 9.265625 0 C 7.921875 0 7.25 -0.671875 7.25 -2.015625 L 7.25 -81.1875 C 7.25 -82.539062 7.921875 -83.21875 9.265625 -83.21875 L 21.515625 -83.21875 C 22.546875 -83.21875 23.335938 -82.78125 23.890625 -81.90625 L 53.609375 -32.453125 C 53.765625 -32.140625 53.941406 -32.019531 54.140625 -32.09375 C 54.335938 -32.175781 54.4375 -32.375 54.4375 -32.6875 L 54.4375 -81.1875 C 54.4375 -82.539062 55.113281 -83.21875 56.46875 -83.21875 L 68.953125 -83.21875 C 70.296875 -83.21875 70.96875 -82.539062 70.96875 -81.1875 L 70.96875 -2.015625 C 70.96875 -0.671875 70.296875 0 68.953125 0 L 56.828125 0 C 55.867188 0 55.070312 -0.472656 54.4375 -1.421875 L 24.609375 -51.359375 C 24.453125 -51.671875 24.273438 -51.785156 24.078125 -51.703125 C 23.878906 -51.628906 23.78125 -51.429688 23.78125 -51.109375 L 23.890625 -2.015625 C 23.890625 -0.671875 23.21875 0 21.875 0 Z M 9.265625 0 "/></g></g></g><g fill="#551a85" fill-opacity="1"><g transform="translate(525.904112, 182.578478)"><g><path d="M 64.078125 -83.21875 C 65.421875 -83.21875 66.09375 -82.539062 66.09375 -81.1875 L 66.09375 -70.734375 C 66.09375 -69.378906 65.421875 -68.703125 64.078125 -68.703125 L 43.515625 -68.703125 C 43.035156 -68.703125 42.796875 -68.46875 42.796875 -68 L 42.796875 -2.015625 C 42.796875 -0.671875 42.125 0 40.78125 0 L 28.046875 0 C 26.703125 0 26.03125 -0.671875 26.03125 -2.015625 L 26.03125 -68 C 26.03125 -68.46875 25.796875 -68.703125 25.328125 -68.703125 L 5.34375 -68.703125 C 4 -68.703125 3.328125 -69.378906 3.328125 -70.734375 L 3.328125 -81.1875 C 3.328125 -82.539062 4 -83.21875 5.34375 -83.21875 Z M 64.078125 -83.21875 "/></g></g></g><g fill="#551a85" fill-opacity="1"><g transform="translate(604.125147, 182.578478)"><g><path d="M 35.421875 0.953125 C 29.242188 0.953125 23.816406 -0.078125 19.140625 -2.140625 C 14.460938 -4.203125 10.851562 -7.09375 8.3125 -10.8125 C 5.78125 -14.539062 4.515625 -18.898438 4.515625 -23.890625 L 4.515625 -25.921875 C 4.515625 -27.265625 5.1875 -27.9375 6.53125 -27.9375 L 19.015625 -27.9375 C 20.367188 -27.9375 21.046875 -27.421875 21.046875 -26.390625 L 21.046875 -24.71875 C 21.046875 -21.550781 22.488281 -18.878906 25.375 -16.703125 C 28.269531 -14.523438 32.054688 -13.4375 36.734375 -13.4375 C 40.929688 -13.4375 44.039062 -14.328125 46.0625 -16.109375 C 48.082031 -17.890625 49.09375 -20.085938 49.09375 -22.703125 C 49.09375 -24.609375 48.457031 -26.210938 47.1875 -27.515625 C 45.925781 -28.828125 44.222656 -29.976562 42.078125 -30.96875 C 39.941406 -31.957031 36.492188 -33.320312 31.734375 -35.0625 C 26.347656 -36.882812 21.832031 -38.75 18.1875 -40.65625 C 14.539062 -42.5625 11.445312 -45.15625 8.90625 -48.4375 C 6.375 -51.726562 5.109375 -55.789062 5.109375 -60.625 C 5.109375 -65.382812 6.335938 -69.546875 8.796875 -73.109375 C 11.253906 -76.671875 14.679688 -79.398438 19.078125 -81.296875 C 23.472656 -83.203125 28.484375 -84.15625 34.109375 -84.15625 C 40.140625 -84.15625 45.53125 -83.085938 50.28125 -80.953125 C 55.039062 -78.816406 58.742188 -75.828125 61.390625 -71.984375 C 64.046875 -68.140625 65.375 -63.679688 65.375 -58.609375 L 65.375 -57.421875 C 65.375 -56.066406 64.703125 -55.390625 63.359375 -55.390625 L 50.875 -55.390625 C 49.53125 -55.390625 48.859375 -55.785156 48.859375 -56.578125 L 48.859375 -57.765625 C 48.859375 -61.097656 47.488281 -63.929688 44.75 -66.265625 C 42.019531 -68.609375 38.273438 -69.78125 33.515625 -69.78125 C 29.710938 -69.78125 26.78125 -68.988281 24.71875 -67.40625 C 22.664062 -65.820312 21.640625 -63.640625 21.640625 -60.859375 C 21.640625 -58.878906 22.234375 -57.210938 23.421875 -55.859375 C 24.609375 -54.515625 26.410156 -53.285156 28.828125 -52.171875 C 31.242188 -51.066406 34.988281 -49.644531 40.0625 -47.90625 C 45.601562 -45.84375 50 -44.039062 53.25 -42.5 C 56.5 -40.957031 59.410156 -38.597656 61.984375 -35.421875 C 64.566406 -32.253906 65.859375 -28.175781 65.859375 -23.1875 C 65.859375 -18.34375 64.609375 -14.097656 62.109375 -10.453125 C 59.617188 -6.816406 56.09375 -4.003906 51.53125 -2.015625 C 46.976562 -0.0351562 41.609375 0.953125 35.421875 0.953125 Z M 35.421875 0.953125 "/></g></g></g></svg>